<?xml version="1.0" encoding="UTF-8" standalone="no"?>
<!-- Created with Inkscape (http://www.inkscape.org/) -->

<svg
   width="130.34741mm"
   height="33.125038mm"
   viewBox="0 0 130.34741 33.125038"
   version="1.1"
   id="svg1"
   xml:space="preserve"
   xmlns:inkscape="http://www.inkscape.org/namespaces/inkscape"
   xmlns:sodipodi="http://sodipodi.sourceforge.net/DTD/sodipodi-0.dtd"
   xmlns="http://www.w3.org/2000/svg"
   xmlns:svg="http://www.w3.org/2000/svg"><sodipodi:namedview
     id="namedview1"
     pagecolor="#ffffff"
     bordercolor="#000000"
     borderopacity="0.25"
     inkscape:showpageshadow="2"
     inkscape:pageopacity="0.0"
     inkscape:pagecheckerboard="0"
     inkscape:deskcolor="#d1d1d1"
     inkscape:document-units="mm"><inkscape:page
       x="0"
       y="0"
       width="130.34741"
       height="33.125038"
       id="page3"
       margin="0"
       bleed="0" /></sodipodi:namedview><defs
     id="defs1"><clipPath
       clipPathUnits="userSpaceOnUse"
       id="clipPath3"><path
         d="M 0,157.416 H 163.811 V 0 H 0 Z"
         transform="translate(-16.5654,-35.477498)"
         id="path3" /></clipPath><clipPath
       clipPathUnits="userSpaceOnUse"
       id="clipPath5"><path
         d="M 0,157.416 H 163.811 V 0 H 0 Z"
         transform="translate(-37.945301,-23.741198)"
         id="path5" /></clipPath><clipPath
       clipPathUnits="userSpaceOnUse"
       id="clipPath7"><path
         d="M 0,157.416 H 163.811 V 0 H 0 Z"
         transform="translate(-47.981401,-22.496101)"
         id="path7" /></clipPath><clipPath
       clipPathUnits="userSpaceOnUse"
       id="clipPath9"><path
         d="M 0,157.416 H 163.811 V 0 H 0 Z"
         transform="translate(-55.591801,-30.624998)"
         id="path9" /></clipPath><clipPath
       clipPathUnits="userSpaceOnUse"
       id="clipPath11"><path
         d="M 0,157.416 H 163.811 V 0 H 0 Z"
         transform="translate(-65.192302,-22.890601)"
         id="path11" /></clipPath><clipPath
       clipPathUnits="userSpaceOnUse"
       id="clipPath13"><path
         d="M 0,157.416 H 163.811 V 0 H 0 Z"
         transform="translate(-83.689405,-23.678701)"
         id="path13" /></clipPath><clipPath
       clipPathUnits="userSpaceOnUse"
       id="clipPath15"><path
         d="M 0,157.416 H 163.811 V 0 H 0 Z"
         transform="translate(-91.258705,-30.624998)"
         id="path15" /></clipPath><clipPath
       clipPathUnits="userSpaceOnUse"
       id="clipPath17"><path
         d="M 0,157.416 H 163.811 V 0 H 0 Z"
         transform="translate(-106.99701,-18.660098)"
         id="path17" /></clipPath><clipPath
       clipPathUnits="userSpaceOnUse"
       id="clipPath19"><path
         d="M 0,157.416 H 163.811 V 0 H 0 Z"
         transform="translate(-118.5468,-26.373998)"
         id="path19" /></clipPath><clipPath
       clipPathUnits="userSpaceOnUse"
       id="clipPath21"><path
         d="M 0,157.416 H 163.811 V 0 H 0 Z"
         transform="translate(-122.1552,-30.791003)"
         id="path21" /></clipPath><clipPath
       clipPathUnits="userSpaceOnUse"
       id="clipPath23"><path
         d="M 0,157.416 H 163.811 V 0 H 0 Z"
         transform="translate(-133.374,-34.192403)"
         id="path23" /></clipPath><clipPath
       clipPathUnits="userSpaceOnUse"
       id="clipPath25"><path
         d="M 0,157.416 H 163.811 V 0 H 0 Z"
         transform="translate(-145.7119,-26.373998)"
         id="path25" /></clipPath><clipPath
       clipPathUnits="userSpaceOnUse"
       id="clipPath27"><path
         d="M 0,157.416 H 163.811 V 0 H 0 Z"
         transform="translate(-51.509002,-116.3309)"
         id="path27" /></clipPath><clipPath
       clipPathUnits="userSpaceOnUse"
       id="clipPath29"><path
         d="M 0,157.416 H 163.811 V 0 H 0 Z"
         transform="translate(-43.040701,-111.1525)"
         id="path29" /></clipPath><clipPath
       clipPathUnits="userSpaceOnUse"
       id="clipPath31"><path
         d="M 0,157.416 H 163.811 V 0 H 0 Z"
         transform="translate(-49.291801,-52.754701)"
         id="path31" /></clipPath><clipPath
       clipPathUnits="userSpaceOnUse"
       id="clipPath33"><path
         d="M 0,157.416 H 163.811 V 0 H 0 Z"
         transform="translate(-51.325102,-62.041899)"
         id="path33" /></clipPath><clipPath
       clipPathUnits="userSpaceOnUse"
       id="clipPath35"><path
         d="M 0,157.416 H 163.811 V 0 H 0 Z"
         transform="translate(-47.909701,-113.4853)"
         id="path35" /></clipPath><clipPath
       clipPathUnits="userSpaceOnUse"
       id="clipPath37"><path
         d="M 0,157.416 H 163.811 V 0 H 0 Z"
         transform="translate(-77.006904,-54.768399)"
         id="path37" /></clipPath><clipPath
       clipPathUnits="userSpaceOnUse"
       id="clipPath39"><path
         d="M 0,157.416 H 163.811 V 0 H 0 Z"
         transform="translate(-58.041802,-114.9634)"
         id="path39" /></clipPath><clipPath
       clipPathUnits="userSpaceOnUse"
       id="clipPath41"><path
         d="M 0,157.416 H 163.811 V 0 H 0 Z"
         transform="translate(-55.155502,-109.7655)"
         id="path41" /></clipPath><clipPath
       clipPathUnits="userSpaceOnUse"
       id="clipPath43"><path
         d="M 0,157.416 H 163.811 V 0 H 0 Z"
         transform="translate(-80.882905,-56.015401)"
         id="path43" /></clipPath><clipPath
       clipPathUnits="userSpaceOnUse"
       id="clipPath45"><path
         d="M 0,157.416 H 163.811 V 0 H 0 Z"
         transform="translate(-86.471605,-120.7653)"
         id="path45" /></clipPath><clipPath
       clipPathUnits="userSpaceOnUse"
       id="clipPath47"><path
         d="M 0,157.416 H 163.811 V 0 H 0 Z"
         transform="translate(-79.460199,-65.414904)"
         id="path47" /></clipPath><clipPath
       clipPathUnits="userSpaceOnUse"
       id="clipPath49"><path
         d="M 0,157.416 H 163.811 V 0 H 0 Z"
         transform="translate(-60.143402,-116.2641)"
         id="path49" /></clipPath><clipPath
       clipPathUnits="userSpaceOnUse"
       id="clipPath51"><path
         d="M 0,157.416 H 163.811 V 0 H 0 Z"
         transform="translate(-120.29451,-77.020202)"
         id="path51" /></clipPath><clipPath
       clipPathUnits="userSpaceOnUse"
       id="clipPath53"><path
         d="M 0,157.416 H 163.811 V 0 H 0 Z"
         transform="translate(-66.900902,-115.5885)"
         id="path53" /></clipPath><clipPath
       clipPathUnits="userSpaceOnUse"
       id="clipPath55"><path
         d="M 0,157.416 H 163.811 V 0 H 0 Z"
         transform="translate(-59.746201,-138.0455)"
         id="path55" /></clipPath><clipPath
       clipPathUnits="userSpaceOnUse"
       id="clipPath57"><path
         d="M 0,157.416 H 163.811 V 0 H 0 Z"
         transform="translate(-148.9399,-34.625498)"
         id="path57" /></clipPath></defs><g
     id="g1"
     inkscape:groupmode="layer"
     inkscape:label="1"
     transform="matrix(0.26458333,0,0,0.26458334,179.08768,-101.27862)"><g
       id="g4"
       transform="translate(-124.48758,48.943831)"><g
         id="g3"><path
           id="path26"
           d="m 0,0 c -1.029,0.272 -1.577,0.456 -1.577,0.456 0.563,-0.388 1.157,-0.747 1.774,-1.079 0.426,-0.232 0.869,-0.455 1.317,-0.657 0.352,-0.164 0.713,-0.32 1.079,-0.47 0.214,0.262 0.445,0.508 0.695,0.736 -0.021,0.086 -0.042,0.171 -0.063,0.257 -0.671,0.137 -1.267,0.27 -1.802,0.399 -0.005,0.036 -0.01,0.068 -0.015,0.104 l -0.444,11.39 c -0.966,3.315 -1.091,6.253 -0.37,8.765 C -2.538,14.951 -1.604,6.731 -0.024,0.107 -0.016,0.072 -0.008,0.037 0,0.002 Z"
           style="fill:#040606;fill-opacity:1;fill-rule:nonzero;stroke:none"
           transform="matrix(1.3333333,0,0,-1.3333333,-540.73216,366.25676)"
           clip-path="url(#clipPath27)" /><path
           id="path28"
           d="m 0,0 c 0,0 6.337,-40.445 3.432,-56.161 0,0 4.843,16.294 -1.97,57.162 z"
           style="fill:#040606;fill-opacity:1;fill-rule:nonzero;stroke:none"
           transform="matrix(1.3333333,0,0,-1.3333333,-552.02323,373.1613)"
           clip-path="url(#clipPath29)" /><path
           id="path30"
           d="m 0,0 c 2.562,-0.514 7.127,-0.601 11.54,3.495 0,0 -0.174,1.941 -1.024,4.609 0,0 -1.803,-6.896 -12.585,-7.479 0.9,-0.422 1.761,-0.92 2.569,-1.496 C 5.024,-4.097 18.298,-11.049 38.033,0 37.507,0.02 37.002,0.054 36.517,0.098 28.791,-2.777 14.846,-6.018 0,0 Z"
           style="fill:#040606;fill-opacity:1;fill-rule:nonzero;stroke:none"
           transform="matrix(1.3333333,0,0,-1.3333333,-543.68843,451.02503)"
           clip-path="url(#clipPath31)" /><path
           id="path32"
           d="m 0,0 c 0.171,1.065 0.27,2.139 0.409,3.21 l 0.096,0.804 0.047,0.808 0.096,1.616 c 0.032,0.539 0.063,1.08 0.085,1.619 v 1.618 c 0.04,4.318 -0.204,8.636 -0.639,12.928 -0.2,2.149 -0.475,4.29 -0.747,6.429 -0.312,2.134 -0.623,4.268 -0.985,6.394 -0.709,4.253 -1.572,8.492 -3.055,12.571 0.436,-4.311 1.19,-8.53 1.93,-12.761 0.731,-4.231 1.356,-8.48 1.85,-12.742 0.13,-1.064 0.25,-2.131 0.346,-3.198 0.103,-1.068 0.22,-2.135 0.31,-3.204 l 0.218,-3.21 C 0.049,11.812 0.039,10.739 0.085,9.668 0.171,5.385 0.119,1.076 -0.661,-3.166 l 0.664,3.164 z"
           style="fill:#040606;fill-opacity:1;fill-rule:nonzero;stroke:none"
           transform="matrix(1.3333333,0,0,-1.3333333,-540.97736,438.6421)"
           clip-path="url(#clipPath33)" /><path
           id="path34"
           d="M 0,0 C 3.627,-10.262 14.065,-56.716 14.065,-56.716 14.14,-43.356 1.146,2.489 1.146,2.489 -2.697,3.355 -5.136,-1.919 -5.136,-1.919 -0.273,1.17 -0.002,0 -0.002,0 Z"
           style="fill:#040606;fill-opacity:1;fill-rule:nonzero;stroke:none"
           transform="matrix(1.3333333,0,0,-1.3333333,-545.53123,370.0509)"
           clip-path="url(#clipPath35)" /><path
           id="path36"
           d="M 0,0 C -0.575,0.521 -1.037,1.107 -1.341,1.543 -9.103,0.944 -14.669,1.937 -15.011,1.999 -9.325,0.482 -4.291,-0.037 0,0 Z"
           style="fill:#040606;fill-opacity:1;fill-rule:nonzero;stroke:none"
           transform="matrix(1.3333333,0,0,-1.3333333,-506.73496,448.3401)"
           clip-path="url(#clipPath37)" /><path
           id="path38"
           d="m 0,0 c -3.899,-0.566 -4.29,-6.363 -4.29,-6.363 3.435,4.624 4.109,3.628 4.109,3.628 C 6.878,-11.019 33.25,-50.66 33.25,-50.66 28.539,-38.158 0.002,0 0.002,0 Z"
           style="fill:#040606;fill-opacity:1;fill-rule:nonzero;stroke:none"
           transform="matrix(1.3333333,0,0,-1.3333333,-532.02176,368.0801)"
           clip-path="url(#clipPath39)" /><path
           id="path40"
           d="m 0,0 -1.006,-1.457 c 0,0 20.391,-35.5 23.302,-51.214 0,0 -1.309,16.948 -22.296,52.673 z"
           style="fill:#040606;fill-opacity:1;fill-rule:nonzero;stroke:none"
           transform="matrix(1.3333333,0,0,-1.3333333,-535.87016,375.01063)"
           clip-path="url(#clipPath41)" /><path
           id="path42"
           d="m 0,0 c 2.577,0.436 6.87,1.989 9.525,7.392 0,0 -0.856,1.75 -2.606,3.938 0,0 0.783,-7.084 -9.076,-11.488 0.96,-0.068 1.911,-0.208 2.842,-0.454 5.713,-1.508 22.658,-3.554 38.212,18.656 0,0 -14.721,-18.511 -38.899,-18.046 z"
           style="fill:#040606;fill-opacity:1;fill-rule:nonzero;stroke:none"
           transform="matrix(1.3333333,0,0,-1.3333333,-501.56696,446.67743)"
           clip-path="url(#clipPath43)" /><path
           id="path44"
           d="M 0,0 C 6.99,-7.873 34.041,-42.542 34.567,-43.218 23.483,-21.827 0.573,3.871 0.573,3.871 -2.103,2.442 -4.729,1.247 -7.238,0.254 -6.787,-0.599 -6.365,-1.431 -5.966,-2.217 -2.39,-1.05 0,0.002 0,0.002 Z"
           style="fill:#040606;fill-opacity:1;fill-rule:nonzero;stroke:none"
           transform="matrix(1.3333333,0,0,-1.3333333,-494.11536,360.34423)"
           clip-path="url(#clipPath45)" /><path
           id="path46"
           d="m 0,0 c -0.221,1.055 -0.514,2.093 -0.768,3.143 l -0.199,0.787 -0.244,0.771 -0.49,1.544 c -0.163,0.514 -0.326,1.03 -0.5,1.541 l -0.576,1.513 c -1.511,4.047 -3.284,7.991 -5.226,11.844 -0.955,1.936 -1.978,3.836 -2.998,5.737 -1.057,1.88 -2.11,3.764 -3.209,5.619 -2.185,3.717 -4.508,7.365 -7.352,10.645 1.951,-3.869 4.163,-7.54 6.37,-11.224 2.196,-3.689 4.301,-7.433 6.287,-11.236 0.503,-0.947 0.997,-1.9 1.469,-2.863 0.477,-0.961 0.968,-1.915 1.434,-2.882 l 1.351,-2.92 c 0.466,-0.967 0.84,-1.972 1.265,-2.956 1.613,-3.968 3.108,-8.011 3.897,-12.252 L 0,0.003 Z"
           style="fill:#040606;fill-opacity:1;fill-rule:nonzero;stroke:none"
           transform="matrix(1.3333333,0,0,-1.3333333,-503.4639,434.14476)"
           clip-path="url(#clipPath47)" /><path
           id="path48"
           d="m 0,0 c 0.021,-0.031 0.041,-0.06 0.062,-0.091 -1.057,-0.114 -1.636,-0.14 -1.636,-0.14 0.666,-0.161 1.349,-0.283 2.043,-0.373 0.48,-0.063 0.973,-0.114 1.465,-0.142 0.726,-0.05 1.467,-0.07 2.217,-0.058 C 3.884,-0.428 3.617,-0.037 3.345,0.355 2.67,0.243 2.066,0.155 1.519,0.081 1.503,0.112 1.486,0.142 1.468,0.173 -2.089,6.81 -5.67,15.532 -3.003,20.136 c 0.411,0.701 0.913,1.072 1.513,1.19 0.005,-0.004 0.009,0.003 0.013,0 0.191,0.291 0.403,0.573 0.627,0.841 0.606,0.72 1.277,1.219 2.017,1.495 -0.553,0.291 -1.089,0.501 -1.618,0.615 C -1.952,24.603 -3.36,24.158 -4.597,22.706 -9.596,16.79 -4.817,7.041 0,-0.003 Z"
           style="fill:#040606;fill-opacity:1;fill-rule:nonzero;stroke:none"
           transform="matrix(1.3333333,0,0,-1.3333333,-529.21963,366.34583)"
           clip-path="url(#clipPath49)" /><path
           id="path50"
           d="M 0,0 -1.389,1.568 C -13.819,-9.987 -29.003,-12.717 -29.003,-12.717 -8.701,-10.585 0,0 0,0 Z"
           style="fill:#040606;fill-opacity:1;fill-rule:nonzero;stroke:none"
           transform="matrix(1.3333333,0,0,-1.3333333,-449.01816,418.67103)"
           clip-path="url(#clipPath51)" /><path
           id="path52"
           d="M 0,0 C 4.128,0.343 8.299,1.338 11.724,2.36 11.268,3.096 10.791,3.87 10.287,4.654 6.053,3.108 2.227,2.123 -0.833,1.506 -0.552,0.982 -0.273,0.48 0.002,0 Z"
           style="fill:#040606;fill-opacity:1;fill-rule:nonzero;stroke:none"
           transform="matrix(1.3333333,0,0,-1.3333333,-520.20963,367.24663)"
           clip-path="url(#clipPath53)" /><path
           id="path54"
           d="m 0,0 c -0.33,-0.389 -0.619,-0.799 -0.861,-1.224 -0.482,-0.86 -0.798,-1.775 -0.962,-2.743 -1.721,-9.899 11.953,-24.655 12.416,-25.148 -0.407,0.592 -11.072,16.023 -9.877,24.392 0.122,0.857 0.37,1.646 0.769,2.335 0.013,0.026 0.029,0.045 0.039,0.067 C 5.882,4.82 23.041,-25.928 23.492,-26.727 23.108,-25.833 7.837,9.274 0,0.002 Z"
           style="fill:#040606;fill-opacity:1;fill-rule:nonzero;stroke:none"
           transform="matrix(1.3333333,0,0,-1.3333333,-529.74923,337.30396)"
           clip-path="url(#clipPath55)" /></g><g
         id="g2"
         transform="matrix(2.106561,0,0,2.106561,798.87645,-603.33493)"><path
           id="path2"
           d="m 0,0 c 0.498,0.415 1.058,0.498 1.659,0.498 v -9.186 c 0,-2.509 1.389,-4.065 3.982,-4.065 1.14,0 3.068,0.312 3.878,1.203 V 0 c 0.476,0.415 1.078,0.498 1.679,0.498 V -12.483 C 9.726,-13.624 7.237,-14.226 5.413,-14.226 2.115,-14.226 0,-12.193 0,-8.792 Z"
           style="fill:#040606;fill-opacity:1;fill-rule:nonzero;stroke:none"
           transform="matrix(1.3333333,0,0,-1.3333333,-587.32363,474.0613)"
           clip-path="url(#clipPath3)" /><path
           id="path4"
           d="m 0,0 c -0.042,-1.763 -1.908,-2.489 -3.422,-2.489 -3.131,0 -5.101,2.406 -5.101,5.474 0,2.987 1.991,5.33 5.06,5.33 1.306,0 2.716,-0.27 3.38,-1.597 V 6.636 c 0,-0.644 -0.228,-1.224 -0.788,-1.556 -0.332,1.285 -1.182,1.949 -2.571,1.949 -2.302,0 -3.505,-1.969 -3.505,-4.085 0,-2.24 1.431,-4.147 3.733,-4.147 1.223,0 2.405,0.456 3.193,1.451 C -0.021,0.207 0,0.041 0,0"
           style="fill:#040606;fill-opacity:1;fill-rule:nonzero;stroke:none"
           transform="matrix(1.3333333,0,0,-1.3333333,-558.8171,489.7097)"
           clip-path="url(#clipPath5)" /><path
           id="path6"
           d="m 0,0 c -1.203,-0.787 -3.007,-1.265 -4.437,-1.265 -2.199,0 -3.961,1.514 -3.961,3.775 v 6.386 c 0.477,0.333 0.974,0.436 1.534,0.436 V 2.8 c 0,-1.7 0.892,-2.779 2.634,-2.779 0.933,0 1.845,0.25 2.696,0.643 V 8.917 C -1.099,9.27 -0.539,9.332 0,9.332 Z"
           style="fill:#040606;fill-opacity:1;fill-rule:nonzero;stroke:none"
           transform="matrix(1.3333333,0,0,-1.3333333,-545.43563,491.36983)"
           clip-path="url(#clipPath7)" /><path
           id="path8"
           d="m 0,0 h -5.744 c 0.103,0.519 0.352,0.913 0.788,1.203 H 2.53 L -3.401,-7.941 H 2.55 C 2.364,-8.502 1.949,-8.896 1.451,-9.165 h -7.382 z"
           style="fill:#040606;fill-opacity:1;fill-rule:nonzero;stroke:none"
           transform="matrix(1.3333333,0,0,-1.3333333,-535.28843,480.5313)"
           clip-path="url(#clipPath9)" /><path
           id="path10"
           d="m 0,0 h 3.94 c 1.638,0 2.841,1.058 2.841,2.634 0,1.7 -1.306,2.758 -2.966,2.758 L 0,5.392 Z M 0,6.429 C 0.643,6.656 1.265,6.76 1.949,6.76 h 1.389 c 1.432,0 2.696,0.85 2.696,2.385 0,1.493 -1.223,2.509 -2.716,2.509 H 0 Z m -1.659,-7.86 V 12.67 c 0.477,0.29 1.078,0.415 1.659,0.415 h 3.338 c 2.302,0 4.397,-1.307 4.397,-3.732 C 7.735,8.025 7.03,6.885 5.827,6.263 7.465,5.702 8.502,4.334 8.502,2.612 8.502,0.166 6.553,-1.431 4.064,-1.431 Z"
           style="fill:#040606;fill-opacity:1;fill-rule:nonzero;stroke:none"
           transform="matrix(1.3333333,0,0,-1.3333333,-522.48776,490.84383)"
           clip-path="url(#clipPath11)" /><path
           id="path12"
           d="m 0,0 c -0.062,-1.742 -2.115,-2.427 -3.65,-2.427 -3.172,0 -5.101,2.448 -5.101,5.496 0,2.758 1.721,5.309 4.687,5.309 2.882,0 4.437,-2.281 4.437,-4.978 0,-0.331 -0.062,-0.808 -0.477,-0.808 h -5.931 c 0,0.539 0.332,0.954 0.851,1.161 h 4.002 c -0.042,1.639 -0.871,3.339 -2.779,3.339 -2.219,0 -3.214,-2.136 -3.214,-4.023 0,-2.343 1.369,-4.21 3.816,-4.21 1.244,0 2.509,0.456 3.359,1.411 z"
           style="fill:#040606;fill-opacity:1;fill-rule:nonzero;stroke:none"
           transform="matrix(1.3333333,0,0,-1.3333333,-497.82496,489.79303)"
           clip-path="url(#clipPath13)" /><path
           id="path14"
           d="m 0,0 h -5.744 c 0.103,0.519 0.352,0.913 0.788,1.203 H 2.53 L -3.4,-7.941 H 2.551 C 2.364,-8.502 1.949,-8.896 1.451,-9.165 h -7.382 z"
           style="fill:#040606;fill-opacity:1;fill-rule:nonzero;stroke:none"
           transform="matrix(1.3333333,0,0,-1.3333333,-487.73256,480.5313)"
           clip-path="url(#clipPath15)" /><path
           id="path16"
           d="m 0,0 c 0,0.602 -0.498,0.851 -1.016,0.851 -0.415,0 -0.85,-0.083 -1.265,-0.166 l 0.291,1.99 c -3.609,0.601 -6.014,3.981 -6.014,7.652 0,4.314 2.985,7.278 7.216,7.278 1.825,0 3.815,-0.601 4.624,-2.239 V 15.2 c 0,-0.642 -0.353,-1.264 -0.912,-1.596 -0.394,1.824 -1.866,2.55 -3.733,2.55 -3.338,0 -5.495,-2.633 -5.495,-5.91 0,-3.38 2.489,-6.2 5.889,-6.2 1.597,0 3.194,0.622 4.251,1.804 C 3.857,5.744 3.857,5.599 3.857,5.454 3.774,3.09 0.622,2.592 -1.202,2.592 L -1.307,1.576 c 0.249,0.104 0.561,0.146 0.871,0.146 1.058,0 1.722,-0.747 1.722,-1.784 0,-1.223 -0.871,-1.825 -1.991,-1.825 -1.265,0 -1.783,0.519 -2.032,1.68 0.394,-0.456 0.974,-0.747 1.576,-0.747 C -0.622,-0.954 0,-0.685 0,0"
           style="fill:#040606;fill-opacity:1;fill-rule:nonzero;stroke:none"
           transform="matrix(1.3333333,0,0,-1.3333333,-466.74816,496.4845)"
           clip-path="url(#clipPath17)" /><path
           id="path18"
           d="m 0,0 c -0.809,0.353 -1.658,0.415 -2.509,0.415 -1.327,0 -2.675,-0.602 -2.675,-2.115 0,-1.534 1.307,-2.156 2.634,-2.156 0.892,0 1.763,0.269 2.55,0.683 z m 1.535,-3.919 c -1.14,-0.768 -2.966,-1.224 -4.334,-1.224 -2.032,0 -3.94,1.204 -3.94,3.422 0,2.199 1.866,3.36 3.898,3.36 0.975,0 1.971,-0.208 2.841,-0.622 v 0.995 c 0,1.596 -1.182,2.405 -2.612,2.405 -1.224,0 -2.489,-0.477 -2.945,-1.617 -0.374,0.373 -0.56,1.098 -0.435,1.637 0.766,0.934 2.136,1.246 3.297,1.246 2.239,0 4.23,-1.121 4.23,-3.671 z"
           style="fill:#040606;fill-opacity:1;fill-rule:nonzero;stroke:none"
           transform="matrix(1.3333333,0,0,-1.3333333,-451.34843,486.1993)"
           clip-path="url(#clipPath19)" /><path
           id="path20"
           d="m 0,0 c 1.203,0.768 3.007,1.266 4.438,1.266 2.198,0 3.96,-1.515 3.96,-3.775 V -8.896 C 7.942,-9.207 7.424,-9.331 6.864,-9.331 v 6.553 c 0,1.679 -0.891,2.757 -2.634,2.757 -0.932,0 -1.845,-0.249 -2.695,-0.642 V -8.917 C 1.1,-9.27 0.54,-9.331 0,-9.331 Z"
           style="fill:#040606;fill-opacity:1;fill-rule:nonzero;stroke:none"
           transform="matrix(1.3333333,0,0,-1.3333333,-446.53723,480.30996)"
           clip-path="url(#clipPath21)" /><path
           id="path22"
           d="M 0,0 C 0.436,0.373 0.995,0.477 1.534,0.477 V -2.364 H 4.271 C 4.271,-2.8 4.188,-3.215 3.919,-3.567 H 1.534 v -6.657 c 0,-0.829 0.436,-1.472 1.307,-1.472 0.684,0 1.327,0.311 1.783,0.788 0,-1.41 -0.809,-2.011 -2.177,-2.011 -1.555,0 -2.447,1.141 -2.447,2.675 v 6.677 h -1.514 c 0,0.435 0.083,0.871 0.353,1.203 H 0 Z"
           style="fill:#040606;fill-opacity:1;fill-rule:nonzero;stroke:none"
           transform="matrix(1.3333333,0,0,-1.3333333,-431.57883,475.77476)"
           clip-path="url(#clipPath23)" /><path
           id="path24"
           d="m 0,0 c -0.809,0.353 -1.659,0.415 -2.509,0.415 -1.327,0 -2.676,-0.602 -2.676,-2.115 0,-1.534 1.307,-2.156 2.634,-2.156 0.892,0 1.763,0.269 2.551,0.683 z m 1.534,-3.919 c -1.14,-0.768 -2.965,-1.224 -4.334,-1.224 -2.032,0 -3.939,1.204 -3.939,3.422 0,2.199 1.866,3.36 3.898,3.36 0.975,0 1.97,-0.208 2.841,-0.622 v 0.995 c 0,1.596 -1.182,2.405 -2.613,2.405 -1.223,0 -2.489,-0.477 -2.945,-1.617 -0.373,0.373 -0.559,1.098 -0.435,1.637 0.767,0.934 2.136,1.246 3.297,1.246 2.24,0 4.23,-1.121 4.23,-3.671 z"
           style="fill:#040606;fill-opacity:1;fill-rule:nonzero;stroke:none"
           transform="matrix(1.3333333,0,0,-1.3333333,-415.1283,486.1993)"
           clip-path="url(#clipPath25)" /><path
           id="path56"
           d="m 0,0 v -0.686 h 0.467 c 0.124,0 0.227,0.024 0.308,0.073 0.082,0.048 0.123,0.127 0.123,0.236 0,0.137 -0.032,0.234 -0.097,0.291 C 0.736,-0.031 0.604,-0.001 0.403,0 Z m 0,-1.046 v -0.949 h -0.421 v 2.38 H 0.4 c 0.293,0 0.526,-0.059 0.7,-0.178 0.173,-0.12 0.26,-0.299 0.26,-0.539 0,-0.192 -0.047,-0.34 -0.139,-0.446 -0.093,-0.105 -0.232,-0.177 -0.417,-0.214 0.052,-0.039 0.09,-0.074 0.111,-0.105 0.021,-0.03 0.046,-0.07 0.075,-0.12 L 1.421,-1.949 V -1.995 H 0.964 l -0.477,0.949 z m -0.738,-1.008 c 0.32,-0.336 0.706,-0.505 1.156,-0.505 0.449,0 0.834,0.169 1.155,0.505 0.321,0.337 0.481,0.75 0.481,1.238 0,0.489 -0.16,0.901 -0.481,1.234 -0.321,0.334 -0.706,0.5 -1.155,0.5 -0.45,0 -0.836,-0.166 -1.156,-0.5 -0.321,-0.333 -0.481,-0.745 -0.481,-1.234 0,-0.488 0.16,-0.901 0.481,-1.238 m -0.268,2.748 c 0.393,0.408 0.867,0.612 1.422,0.612 0.553,0 1.026,-0.204 1.421,-0.612 0.394,-0.408 0.592,-0.912 0.592,-1.51 0,-0.596 -0.198,-1.099 -0.592,-1.511 -0.395,-0.411 -0.868,-0.617 -1.421,-0.617 -0.555,0 -1.029,0.206 -1.422,0.617 -0.394,0.412 -0.591,0.915 -0.591,1.511 0,0.598 0.197,1.102 0.591,1.51"
           style="fill:#040606;fill-opacity:1;fill-rule:nonzero;stroke:none"
           transform="matrix(1.3333333,0,0,-1.3333333,-410.8243,475.1973)"
           clip-path="url(#clipPath57)" /></g></g></g></svg>
